<?xml version="1.0" standalone="no"?>
<!DOCTYPE svg PUBLIC "-//W3C//DTD SVG 20010904//EN"
 "http://www.w3.org/TR/2001/REC-SVG-20010904/DTD/svg10.dtd">
<svg version="1.0" xmlns="http://www.w3.org/2000/svg"
 width="260.000000pt" height="260.000000pt" viewBox="0 0 260.000000 260.000000"
 preserveAspectRatio="xMidYMid meet">
<metadata>
Created by potrace 1.14, written by Peter Selinger 2001-2017
</metadata>
<g transform="translate(0.000000,260.000000) scale(0.100000,-0.100000)"
fill="#000000" stroke="none">
<path d="M711 2566 c-17 -17 -31 -37 -31 -43 0 -6 -6 -13 -12 -16 -10 -3 -10
-7 -1 -17 9 -10 19 -4 46 24 33 34 35 34 51 17 9 -10 16 -22 16 -28 0 -16 32
-25 41 -12 7 12 -46 93 -67 102 -7 3 -26 -9 -43 -27z"/>
<path d="M730 2441 c0 -15 6 -21 21 -21 14 0 19 5 17 17 -5 26 -38 29 -38 4z"/>
<path d="M730 2359 c0 -25 33 -22 38 4 2 12 -3 17 -17 17 -15 0 -21 -6 -21
-21z"/>
<path d="M743 2303 c-7 -3 -13 -14 -13 -25 0 -14 5 -18 16 -14 9 3 18 6 20 6
7 0 4 29 -3 33 -5 2 -14 2 -20 0z"/>
<path d="M294 2205 c-2 -5 -3 -440 -2 -965 l3 -955 715 -1 c423 -1 717 3 721
8 3 5 4 21 1 34 -4 21 -10 25 -36 24 -17 -1 -65 -2 -107 -1 l-77 1 2 67 1 68
290 5 289 5 1 230 c1 127 -1 236 -3 243 -2 6 -17 12 -33 12 l-29 0 0 -213 0
-214 -365 1 c-201 1 -365 -1 -366 -4 0 -3 -2 -17 -4 -32 l-4 -28 80 0 79 0 0
-70 c0 -38 -3 -70 -7 -70 -14 -1 -977 -1 -1033 0 l-55 0 0 170 c0 107 4 170
10 171 5 1 71 3 145 4 74 1 140 3 146 4 6 0 11 13 10 29 l-1 27 -155 5 -155 5
0 318 c0 204 4 317 10 318 12 1 177 1 188 0 4 -1 7 -116 7 -256 l0 -255 23 -1
c12 0 78 -1 147 -2 l125 -2 0 -165 0 -165 -140 -2 c-77 -1 -149 -2 -161 -2
-16 -1 -20 -8 -20 -31 l0 -30 291 0 292 0 -1 32 -1 31 -95 1 -95 1 -1 167 -2
167 224 0 224 -1 0 -64 0 -64 -145 0 c-89 0 -145 -4 -146 -10 -1 -5 -1 -17 -1
-25 0 -8 0 -18 1 -23 0 -4 180 -7 398 -7 l398 0 1 255 c0 140 -1 260 -3 266
-2 6 -14 9 -26 8 -12 -1 -25 -3 -29 -3 -5 -1 -8 -104 -8 -231 l0 -230 -185 0
c-141 0 -185 3 -186 13 -1 6 -1 49 -1 95 l1 82 -57 1 c-31 0 -214 1 -407 2
l-350 2 0 219 c0 198 1 219 17 225 9 3 76 5 148 4 l130 -2 0 34 0 34 -227 0
c-126 0 -253 0 -283 0 l-55 1 0 220 c0 188 2 221 15 225 8 2 51 4 95 4 128 -1
125 -2 125 25 0 14 -5 28 -12 32 -7 4 -60 8 -118 8 l-105 1 0 80 0 80 143 3
142 3 0 29 c0 21 -5 30 -17 31 -99 6 -326 2 -329 -6z"/>
<path d="M887 2212 c-11 -2 -17 -13 -17 -32 l0 -29 77 -3 78 -3 0 -70 c1 -38
-1 -75 -3 -81 -2 -8 -39 -12 -110 -12 -59 0 -113 -1 -119 -1 -10 -1 -13 -32
-13 -121 0 -118 0 -120 -22 -121 -13 0 -61 -1 -108 -2 l-85 -2 -3 -31 -3 -31
273 -1 c150 0 279 -1 286 -1 10 -1 13 -34 10 -161 l-3 -160 33 0 32 0 1 123
c1 67 0 139 -1 160 -1 29 2 37 17 38 21 1 144 1 156 0 4 -1 7 -107 7 -236 l0
-235 -27 -1 c-16 0 -139 -1 -275 -1 l-248 -1 0 -34 0 -34 308 3 307 3 1 60 c0
33 3 65 6 71 7 11 144 12 155 0 5 -4 8 -78 8 -164 l0 -157 33 -3 32 -3 0 225
0 226 179 0 180 0 3 -32 c3 -27 7 -32 31 -33 21 -2 27 3 28 19 1 12 2 171 3
353 1 260 -2 333 -11 334 -52 5 -48 27 -53 -286 l-5 -290 -203 0 c-112 0 -207
-2 -211 -5 -4 -3 -7 -27 -6 -55 l0 -50 -85 -3 -85 -3 1 160 c0 88 3 163 7 167
4 4 42 8 84 8 l78 1 0 149 c0 140 -1 149 -20 156 -41 15 -45 4 -45 -121 l0
-119 -32 -1 c-179 -3 -648 0 -655 4 -5 3 -9 43 -8 89 l0 83 230 2 c127 1 239
2 251 2 16 1 21 8 22 31 0 17 -5 30 -11 31 -7 0 -65 1 -129 1 l-118 -1 0 85 0
84 360 0 360 0 0 -246 0 -245 33 3 32 3 0 240 0 240 180 0 180 0 0 -480 0
-480 -107 0 c-60 0 -108 -3 -109 -7 -8 -54 -11 -53 106 -58 l110 -5 1 -382 0
-382 -141 -3 -140 -3 0 -30 0 -30 173 -1 172 -1 -2 965 -3 966 -696 1 c-382 0
-703 -1 -712 -3z"/>
<path d="M1793 132 c-50 -50 -14 -132 58 -132 41 0 71 29 76 75 7 65 -87 105
-134 57z"/>
</g>
</svg>
